<?xml version="1.0" encoding="iso-8859-1"?>
<!-- Generator: Adobe Illustrator 19.0.0, SVG Export Plug-In . SVG Version: 6.00 Build 0)  -->
<svg version="1.1" id="Capa_1" xmlns="http://www.w3.org/2000/svg" xmlns:xlink="http://www.w3.org/1999/xlink" x="0px" y="0px"
	 viewBox="0 0 511.992 511.992" style="enable-background:new 0 0 511.992 511.992;" xml:space="preserve">
<path style="fill:#4799CF;" d="M394.492,319.554V142.251c0-4.684-1.956-9.157-5.397-12.338l-91.094-84.086
	c-6.925-6.387-17.752-5.833-23.98,1.234L130.384,210.062l9.518-10.802l2.787,2.787l226.623,235.016h134.295v-8.393
	C503.607,368.404,454.757,319.554,394.492,319.554z"/>
<g>
	<polyline style="fill:#DBDBDB;" points="386.098,218.833 327.344,218.833 327.344,252.407 386.098,252.407 	"/>
	<polyline style="fill:#DBDBDB;" points="386.098,285.98 327.344,285.98 327.344,319.554 386.098,319.554 	"/>
	<path style="fill:#DBDBDB;" d="M142.689,202.046l-2.787-2.787l-9.518,10.802c-7.42,9.887-6.555,23.703,2.031,32.6l220.11,227.974
		H486.82c9.275,0,16.787-7.512,16.787-16.787v-16.787H369.311L142.689,202.046z"/>
</g>
<g>
	<polyline style="fill:#EAEAE8;" points="394.492,218.833 335.738,218.833 335.738,252.407 394.492,252.407 	"/>
	<rect x="335.738" y="285.964" style="fill:#EAEAE8;" width="58.754" height="33.574"/>
</g>
<g>
	<rect x="8.393" y="260.783" style="fill:#6CBAE5;" width="83.934" height="16.787"/>
	<rect x="8.393" y="336.324" style="fill:#6CBAE5;" width="134.295" height="16.787"/>
	<rect x="8.393" y="411.865" style="fill:#6CBAE5;" width="184.656" height="16.787"/>
</g>
<path style="fill:#F7BA61;" d="M372.879,428.669L224.499,274.792c26.087-26.431,25.978-69.162-0.327-95.459l-33.582-33.582
	c-0.646-0.646-1.444-1.066-2.241-1.469l-53.475,60.676c0.395,1.049,0.948,2.056,1.771,2.913l226.623,235.016
	c1.578,1.637,3.76,2.568,6.043,2.568h134.295v-16.787L372.879,428.669L372.879,428.669z"/>
<path style="fill:#EAEAE8;" d="M261.783,60.944l6.807,6.807l125.902,117.508v-43.008c0-4.684-1.956-9.157-5.397-12.338
	l-91.094-84.086c-6.925-6.387-17.752-5.833-23.98,1.234L261.783,60.944z"/>
<polygon style="fill:#428DC5;" points="394.492,353.128 394.492,319.554 327.344,319.554 "/>
<path d="M402.885,311.454V142.243c0-7.009-2.954-13.748-8.1-18.499l-91.094-84.085c-5.019-4.633-11.633-6.983-18.373-6.648
	c-6.824,0.353-13.077,3.374-17.601,8.503L123.661,205.017c-9.946,13.262-8.813,31.543,2.703,43.461l0,0l220.118,227.974
	c1.578,1.637,3.76,2.56,6.035,2.56h134.295c13.883,0,25.18-11.298,25.18-25.18v-25.18C512,366.7,463.771,315.777,402.885,311.454z
	 M280.316,52.617c1.502-1.712,3.584-2.719,5.867-2.829c2.266-0.159,4.449,0.671,6.119,2.216l91.094,84.085
	c1.721,1.578,2.703,3.827,2.703,6.161v23.703L274.314,61.615c-0.369-0.353-0.831-0.504-1.251-0.772L280.316,52.617z
	 M183.539,162.437l28.764,28.764c9.619,9.619,14.915,22.41,14.915,36.025c0,13.354-5.12,25.902-14.403,35.454l-61.457-63.731
	L183.539,162.437z M495.213,453.849c0,4.625-3.769,8.393-8.393,8.393H356.083L138.441,236.837c-5.758-5.959-6.32-15.1-1.763-21.219
	l3.55-4.029l223.039,231.298c1.578,1.637,3.76,2.568,6.043,2.568h125.902V453.849z M372.879,428.669L224.483,274.775
	c26.078-26.439,25.986-69.145-0.311-95.442l-29.511-29.511l67.626-76.741c0.218,0.26,0.327,0.571,0.579,0.806l123.233,115.015
	v21.538h-50.361c-4.633,0-8.393,3.76-8.393,8.393v33.574c0,4.633,3.76,8.393,8.393,8.393h50.361v16.787h-50.361
	c-4.633,0-8.393,3.76-8.393,8.393v33.574c0,4.633,3.76,8.393,8.393,8.393h58.754c55.539,0,100.721,45.182,100.721,100.721H372.879z
	 M386.098,227.226v16.787h-41.967v-16.787H386.098z M386.098,294.374v16.787h-41.967v-16.787H386.098L386.098,294.374z"/>
<path d="M8.393,277.587h83.934c4.633,0,8.393-3.76,8.393-8.393s-3.76-8.393-8.393-8.393H8.393C3.76,260.8,0,264.56,0,269.193
	S3.76,277.587,8.393,277.587z"/>
<path d="M8.393,353.128h134.295c4.633,0,8.393-3.76,8.393-8.393c0-4.633-3.76-8.393-8.393-8.393H8.393
	c-4.633,0-8.393,3.76-8.393,8.393C0,349.368,3.76,353.128,8.393,353.128z"/>
<path d="M193.049,428.669c4.633,0,8.393-3.76,8.393-8.393c0-4.633-3.76-8.393-8.393-8.393H8.393c-4.633,0-8.393,3.76-8.393,8.393
	c0,4.633,3.76,8.393,8.393,8.393H193.049z"/>
<g>
</g>
<g>
</g>
<g>
</g>
<g>
</g>
<g>
</g>
<g>
</g>
<g>
</g>
<g>
</g>
<g>
</g>
<g>
</g>
<g>
</g>
<g>
</g>
<g>
</g>
<g>
</g>
<g>
</g>
</svg>
