<svg id="Layer_1" height="512" viewBox="0 0 150 150" width="512" xmlns="http://www.w3.org/2000/svg" data-name="Layer 1"><circle cx="75" cy="75" fill="#e05b49" r="64"/><path d="m107.08 66.39-9.99-22.39a1.49 1.49 0 0 0 -1.35-.88h-41.48a1.47 1.47 0 0 0 -1.34.88l-10 22.36a1.48 1.48 0 0 0 .75 2 1.57 1.57 0 0 0 .6.12 1.48 1.48 0 0 0 1.35-.87l9.6-21.48h39.56l9.6 21.48a1.48 1.48 0 0 0 1.35.87 1.57 1.57 0 0 0 .6-.12 1.48 1.48 0 0 0 .75-1.97z" fill="#3a556a"/><path d="m44.27 70 2.73 34a3.11 3.11 0 0 0 3.1 2.86h49.81a3.11 3.11 0 0 0 3.09-2.86l2.72-34zm14.1 30.9h-5.12v-9.6h5.12zm0-13.89h-5.12v-9.6h5.12zm9.63 13.85h-5.16v-9.56h5.16zm0-13.86h-5.16v-9.59h5.16zm9.61 13.89h-5.18v-9.59h5.14zm0-13.89h-5.18v-9.59h5.14zm9.59 13.89h-5.2v-9.59h5.12zm0-13.89h-5.2v-9.59h5.12zm9.59 13.89h-5.16v-9.59h5.12zm0-13.89h-5.16v-9.59h5.12z" fill="#fcd462"/><path d="m105.34 74.81.39-4.85h-61.46l.39 4.85z" fill="#f7be56"/><rect fill="#fcd462" height="8.46" rx="1.22" width="71.96" x="39.02" y="64.46"/></svg>