<?xml version="1.0"?>
<svg xmlns="http://www.w3.org/2000/svg" id="filled_outline" data-name="filled outline" viewBox="0 0 512 512" width="512" height="512"><rect x="288" y="72" width="200" height="112" style="fill:#00b55b"/><rect x="240" y="24" width="200" height="112" style="fill:#02c26a"/><polygon points="39 415.25 24 424 48 488 64 480 72 440 39 415.25" style="fill:#e0edff"/><path d="M39,415.25,72,440l64.43794-29.29a56,56,0,0,0,30.67238-35.59614L176,344l-56-80V368L39,415.25Z" style="fill:#62798c"/><path d="M248,448V360.06059a56,56,0,0,0-8.51209-29.67994L208,280V264H120v9.24a64,64,0,0,0,24.01952,49.9756L200,368l8,104Z" style="fill:#718799"/><path d="M208,264V188a44,44,0,0,0-44-44H164a44,44,0,0,0-44,44v76Z" style="fill:#548aff"/><path d="M176,152h0a24,24,0,0,1-24-24v-8l16-16h32v24A24,24,0,0,1,176,152Z" style="fill:#ffceb6"/><path d="M200,104l6.63344-13.26688A12.94424,12.94424,0,0,0,208,84.94427h0A12.94426,12.94426,0,0,0,195.05574,72H176a24,24,0,0,0-24,24v24l16-16Z" style="fill:#b1712c"/><path d="M168,224l28-28h0l12,12h64a40,40,0,0,1,40,40v8H288l-8-8H208.56854a40,40,0,0,1-28.28427-11.71573L168,224Z" style="fill:#ffceb6"/><polygon points="336 376 464 376 488 280 304 280 336 376" style="fill:#ffc431"/><circle cx="376" cy="472" r="16" style="fill:#e0edff"/><circle cx="472" cy="472" r="16" style="fill:#e0edff"/><path d="M272,24V40a16,16,0,0,1-16,16H240V24Z" style="fill:#3cde8d"/><path d="M456,184V168a16,16,0,0,1,16-16h16v32Z" style="fill:#08d175"/><path d="M320,184V168a16,16,0,0,0-16-16H288v32Z" style="fill:#08d175"/><path d="M456,72V88a16,16,0,0,0,16,16h16V72Z" style="fill:#08d175"/><polygon points="208 472 208 488 280 488 280 472 248 448 208 472" style="fill:#e0edff"/><path d="M408,24V40a16,16,0,0,0,16,16h16V24Z" style="fill:#3cde8d"/><path d="M272,136V120a16,16,0,0,0-16-16H240v32Z" style="fill:#3cde8d"/><path d="M408,136V120a16,16,0,0,1,16-16h16v32Z" style="fill:#3cde8d"/><path d="M345.12231,384H464a7.9992,7.9992,0,0,0,7.76074-6.05957l24-96A7.99948,7.99948,0,0,0,488,272H309.48584l-2.54541-8H312a8.00008,8.00008,0,0,0,8-8v-8a48.054,48.054,0,0,0-48-48H216V188a52.1785,52.1785,0,0,0-16.666-38.13538A31.87528,31.87528,0,0,0,208,128V105.88843l5.79-11.57837A20.94556,20.94556,0,0,0,195.05566,64H176a32.03635,32.03635,0,0,0-32,32v32a31.83613,31.83613,0,0,0,2.02905,11.20453A52.1847,52.1847,0,0,0,112,188V363.40527L19.96875,417.08984a7.99907,7.99907,0,0,0-3.459,9.71924l24,64a7.99973,7.99973,0,0,0,11.06835,4.34619l16-8a7.99993,7.99993,0,0,0,4.26661-5.58642L79.041,445.5874l60.707-27.59424a63.89923,63.89923,0,0,0,35.05468-40.68164l4.47071-15.64764L192.29,372.07715l7.71,100.23V488a8.00008,8.00008,0,0,0,8,8h72a8.00008,8.00008,0,0,0,8-8V472a7.99927,7.99927,0,0,0-3.2002-6.3999L256,444V360.06055a63.93944,63.93944,0,0,0-9.72754-33.91993L216,277.70557V256h60.68652l5.65625,5.65674A8.00076,8.00076,0,0,0,288,264h2.15063L344.377,434.42578A7.99922,7.99922,0,0,0,352,440h16v9.37616a24,24,0,1,0,16,0V440h80v9.37616a24,24,0,1,0,16,0V440h16V424H357.84961ZM176,144a16.01833,16.01833,0,0,1-16-16v-4.68652L171.31348,112H192v16A16.01833,16.01833,0,0,1,176,144Zm0-64h19.05566a4.945,4.945,0,0,1,4.42286,7.15527L195.05591,96H168a8.00076,8.00076,0,0,0-5.65723,2.34326L160,100.686V96A16.01833,16.01833,0,0,1,176,80Zm-20.062,72.90472a31.89383,31.89383,0,0,0,28.98413,5.82019A36.12831,36.12831,0,0,1,200,188v.68634l-18.34277-18.34308-11.31446,11.31348L184.686,196,168,212.686l-18.34277-18.34278-11.31446,11.31348,36.28516,36.28467A47.6439,47.6439,0,0,0,200,255.22839V256H128V188A36.10335,36.10335,0,0,1,155.938,152.90472ZM52.37012,476.87061,33.86035,427.50977l4.58594-2.67518,24.72021,18.5401-6.24365,31.21955ZM159.418,372.916a47.92175,47.92175,0,0,1-26.291,30.51123L73.00635,430.755,53.446,416.08478l70.58521-41.17462A8.00119,8.00119,0,0,0,128,368V318.51776a72.5929,72.5929,0,0,0,11.02246,10.94513l26.7063,21.36517ZM272,476v4H216v-3.4704l31.50342-18.90216ZM232.7041,334.62109A47.94221,47.94221,0,0,1,240,360.06055V443.4704l-25.01611,15.00976-7.00733-91.09393a8.003,8.003,0,0,0-2.97851-5.6333l-55.98047-44.78418A55.72447,55.72447,0,0,1,128,273.24023V272h72v8a7.998,7.998,0,0,0,1.21582,4.24023Zm52.95313-92.27783A8.00076,8.00076,0,0,0,280,240H208.56836a31.79061,31.79061,0,0,1-22.627-9.37256L179.314,224,196,207.314l6.34277,6.34278A8.00076,8.00076,0,0,0,208,216h64a32.03635,32.03635,0,0,1,32,32H291.31348ZM477.75391,288l-20,80H340.03125l-25.45459-80ZM376,480a8,8,0,1,1,8-8A8.00917,8.00917,0,0,1,376,480Zm96,0a8,8,0,1,1,8-8A8.00917,8.00917,0,0,1,472,480Z"/><path d="M240,144H440a8.00008,8.00008,0,0,0,8-8V24a8.00008,8.00008,0,0,0-8-8H240a8.00008,8.00008,0,0,0-8,8V136A8.00008,8.00008,0,0,0,240,144Zm8-32h8a8.00917,8.00917,0,0,1,8,8v8H248Zm32-72V32H400v8a24.02718,24.02718,0,0,0,24,24h8V96h-8a24.02718,24.02718,0,0,0-24,24v8H280v-8a24.02718,24.02718,0,0,0-24-24h-8V64h8A24.02718,24.02718,0,0,0,280,40Zm136,88v-8a8.00917,8.00917,0,0,1,8-8h8v16Zm16-80h-8a8.00917,8.00917,0,0,1-8-8V32h16ZM264,32v8a8.00917,8.00917,0,0,1-8,8h-8V32Z"/><path d="M488,64H464V80h16v64h-8a24.02718,24.02718,0,0,0-24,24v8H296V160H280v24a8.00008,8.00008,0,0,0,8,8H488a8.00008,8.00008,0,0,0,8-8V72A8.00008,8.00008,0,0,0,488,64ZM464,176v-8a8.00917,8.00917,0,0,1,8-8h8v16Z"/><path d="M328,120h16v-8.40314A20.00052,20.00052,0,0,0,340,72a4,4,0,0,1,0-8h20V48h-8V40H336v8.40314A20.00052,20.00052,0,0,0,340,88a4,4,0,0,1,0,8H320v16h8Z"/></svg>
