<svg id="Filled" height="512" viewBox="0 0 512 512" width="512" xmlns="http://www.w3.org/2000/svg"><circle cx="176" cy="424" fill="#7e8589" r="32"/><circle cx="400" cy="424" fill="#7e8589" r="32"/><path d="m144 336h304a8 8 0 0 0 7.832-6.368l40-192a8 8 0 0 0 -7.832-9.632h-382.841l-17.372-73.833a8 8 0 0 0 -7.787-6.167h-56a8 8 0 0 0 0 16h49.664l60.593 257.522a32.053 32.053 0 0 0 -22.257 30.478v16a32.036 32.036 0 0 0 32 32h.022a40 40 0 1 0 63.956 0h160.044a40 40 0 1 0 63.956 0h32.022a8 8 0 0 0 0-16h-320a16.019 16.019 0 0 1 -16-16v-16a16.019 16.019 0 0 1 16-16zm8-16h-1.664l-7.529-32h44.131l4 32zm168.326 0h-48.652l-1.334-32h51.32zm2-48h-52.652l-1.334-32h55.32zm2-48h-56.652l-1.334-32h59.32zm117.174 96h-40.438l4-32h43.1zm-18.438-176h55.1l-6.662 32h-52.438zm-6 48h51.1l-6.662 32h-48.438zm-6 48h47.1l-6.662 32h-44.438zm-67.388-96h63.264l-4 32h-60.6zm-2 48h59.264l-4 32h-56.6zm-2 48h55.264l-4 32h-52.6zm-2 48h51.264l-4 32h-48.6zm-10.014-144-1.334 32h-60.652l-1.334-32zm-72 176h-48.6l-4-32h51.264zm-2-48h-52.6l-4-32h55.264zm-2-48h-56.6l-4-32h59.264zm-3.334-80 1.334 32h-60.6l-4-32zm-139.4 0h60.013l4 32h-56.485zm11.294 48h54.719l4 32h-51.19zm11.294 48h49.425l4 32h-45.9zm268.486 160a24 24 0 1 1 -24 24 24.028 24.028 0 0 1 24-24zm-224 0a24 24 0 1 1 -24 24 24.028 24.028 0 0 1 24-24z"/><circle cx="176" cy="424" r="8"/><circle cx="400" cy="424" r="8"/></svg>