<svg enable-background="new 0 0 256 256" height="512" viewBox="0 0 256 256" width="512" xmlns="http://www.w3.org/2000/svg"><path d="m241.4 112.607h-169.956l15.808 86.243h135.738l18.625-86.253c-.073.001-.143.01-.215.01z" fill="#fc3850"/><path d="m241.4 94.391h-173.295l3.339 18.215h169.956c3.458 0 6.287-2.829 6.287-6.287v-5.641c0-3.458-2.829-6.287-6.287-6.287z" fill="#f9677f"/><circle cx="186.947" cy="231.002" fill="#2a4a97" r="22.495"/><circle cx="114.637" cy="231.002" fill="#2a4a97" r="22.495"/><path d="m224.829 198.849h-137.577l-26.846-146.458c-.698-3.806-4.014-6.569-7.883-6.569h-40.071c-4.426 0-8.014 3.588-8.014 8.014s3.588 8.014 8.014 8.014h33.392l26.846 146.458c.698 3.806 4.014 6.569 7.883 6.569h18.398c4.051-3.937 9.571-6.37 15.666-6.37s11.615 2.434 15.666 6.37h40.979c4.051-3.937 9.571-6.37 15.666-6.37s11.615 2.434 15.666 6.37h22.216c4.426 0 8.014-3.588 8.014-8.014-.001-4.426-3.589-8.014-8.015-8.014z" fill="#c5e3ff"/><circle cx="186.947" cy="231.002" fill="#c5e3ff" r="9.119"/><circle cx="114.637" cy="231.002" fill="#c5e3ff" r="9.119"/><g fill="#f9677f"><path d="m107.48 131.147h-.542c-3.945 0-7.173 3.228-7.173 7.173v32.443c0 3.945 3.228 7.173 7.173 7.173h.542c3.945 0 7.173-3.228 7.173-7.173v-32.443c0-3.945-3.228-7.173-7.173-7.173z"/><path d="m139.027 131.147h-.542c-3.945 0-7.173 3.228-7.173 7.173v32.443c0 3.945 3.228 7.173 7.173 7.173h.542c3.945 0 7.173-3.228 7.173-7.173v-32.443c0-3.945-3.228-7.173-7.173-7.173z"/><path d="m170.574 131.147h-.542c-3.945 0-7.173 3.228-7.173 7.173v32.443c0 3.945 3.228 7.173 7.173 7.173h.542c3.945 0 7.173-3.228 7.173-7.173v-32.443c0-3.945-3.227-7.173-7.173-7.173z"/><path d="m202.122 131.147h-.542c-3.945 0-7.173 3.228-7.173 7.173v32.443c0 3.945 3.228 7.173 7.173 7.173h.542c3.945 0 7.173-3.228 7.173-7.173v-32.443c0-3.945-3.228-7.173-7.173-7.173z"/></g><path d="m178.16 40.619c-3.028-3.028-7.937-3.028-10.965 0l-9.151 9.151v-39.513c0-4.282-3.471-7.753-7.753-7.753s-7.753 3.471-7.753 7.753v39.513l-9.151-9.151c-3.028-3.028-7.937-3.028-10.965 0s-3.028 7.937 0 10.965l22.387 22.387c3.028 3.028 7.937 3.028 10.965 0l22.387-22.387c3.027-3.028 3.027-7.937-.001-10.965z" fill="#a0d85d"/><path d="m222.989 201.349h-135.737c-1.207 0-2.241-.862-2.459-2.049l-15.808-86.243c-.134-.729.063-1.481.539-2.051s1.179-.899 1.92-.899h169.916c.052-.003.152-.009.168-.009.771-.028 1.509.304 2.003.896s.688 1.377.525 2.131l-18.625 86.253c-.246 1.15-1.264 1.971-2.442 1.971zm-133.654-5h131.636l17.542-81.243h-164.069z"/><path d="m241.4 115.106h-169.956c-1.207 0-2.241-.862-2.459-2.049l-3.339-18.215c-.134-.729.063-1.481.539-2.051s1.179-.899 1.92-.899h173.295c4.845 0 8.787 3.942 8.787 8.787v5.641c0 4.845-3.942 8.786-8.787 8.786zm-167.873-5h167.873c2.088 0 3.787-1.699 3.787-3.787v-5.641c0-2.088-1.699-3.787-3.787-3.787h-170.295z"/><path d="m186.947 255.997c-13.782 0-24.994-11.212-24.994-24.995s11.212-24.995 24.994-24.995 24.995 11.212 24.995 24.995-11.213 24.995-24.995 24.995zm0-44.99c-11.025 0-19.994 8.97-19.994 19.995s8.969 19.995 19.994 19.995 19.995-8.97 19.995-19.995-8.97-19.995-19.995-19.995z"/><path d="m114.637 255.997c-13.782 0-24.995-11.212-24.995-24.995s11.212-24.995 24.995-24.995 24.995 11.212 24.995 24.995-11.213 24.995-24.995 24.995zm0-44.99c-11.025 0-19.995 8.97-19.995 19.995s8.97 19.995 19.995 19.995 19.995-8.97 19.995-19.995-8.97-19.995-19.995-19.995z"/><path d="m224.829 217.377h-22.216c-.65 0-1.275-.253-1.742-.707-3.758-3.652-8.703-5.663-13.924-5.663s-10.166 2.011-13.923 5.663c-.466.453-1.091.707-1.742.707h-40.979c-.65 0-1.275-.253-1.742-.707-3.758-3.652-8.703-5.663-13.924-5.663s-10.166 2.011-13.923 5.663c-.466.453-1.091.707-1.742.707h-18.399c-5.077 0-9.426-3.625-10.342-8.619l-26.47-144.408h-31.309c-5.798 0-10.515-4.717-10.515-10.514s4.717-10.514 10.515-10.514h40.071c5.077 0 9.426 3.625 10.342 8.618l26.47 144.409h135.494c5.797 0 10.514 4.717 10.514 10.514s-4.717 10.514-10.514 10.514zm-21.231-5h21.231c3.041 0 5.514-2.474 5.514-5.514s-2.474-5.514-5.514-5.514h-137.577c-1.207 0-2.241-.862-2.459-2.049l-26.846-146.458c-.48-2.619-2.762-4.52-5.424-4.52h-40.071c-3.041 0-5.515 2.474-5.515 5.514s2.474 5.514 5.515 5.514h33.392c1.207 0 2.241.862 2.459 2.049l26.846 146.458c.48 2.619 2.761 4.52 5.424 4.52h17.414c4.594-4.116 10.466-6.37 16.65-6.37s12.056 2.254 16.65 6.37h39.01c4.594-4.116 10.466-6.37 16.65-6.37s12.056 2.255 16.651 6.37z"/><path d="m150.292 78.741c-2.739 0-5.314-1.066-7.25-3.003l-22.386-22.387c-1.937-1.936-3.003-4.511-3.003-7.25s1.066-5.313 3.003-7.25 4.511-3.003 7.25-3.003 5.313 1.067 7.25 3.003l4.883 4.883v-33.477c0-5.654 4.6-10.253 10.253-10.253 5.654 0 10.253 4.6 10.253 10.253v33.478l4.884-4.883c1.936-1.937 4.511-3.003 7.25-3.003s5.313 1.066 7.25 3.003c1.937 1.936 3.004 4.511 3.004 7.25s-1.067 5.314-3.004 7.25l-22.387 22.386c-1.938 1.937-4.512 3.003-7.25 3.003zm-22.387-37.893c-1.403 0-2.723.546-3.715 1.539s-1.539 2.312-1.539 3.714c0 1.403.546 2.723 1.539 3.714l22.387 22.387c.993.992 2.312 1.539 3.714 1.539 1.403 0 2.722-.546 3.715-1.539l22.387-22.387c.992-.992 1.539-2.312 1.539-3.715s-.547-2.722-1.539-3.714c-.992-.992-2.312-1.539-3.715-1.539s-2.722.546-3.714 1.539l-9.152 9.151c-.715.716-1.791.929-2.724.542-.935-.387-1.543-1.298-1.543-2.31v-39.512c0-2.897-2.356-5.253-5.253-5.253-2.896 0-5.253 2.356-5.253 5.253v39.513c0 1.011-.609 1.923-1.543 2.31-.933.387-2.01.174-2.724-.542l-9.151-9.151c-.994-.992-2.313-1.539-3.716-1.539z"/><path d="m251.562 106h-181.788c-1.381 0-2.5-1.119-2.5-2.5s1.119-2.5 2.5-2.5h181.788c1.381 0 2.5 1.119 2.5 2.5s-1.119 2.5-2.5 2.5z"/><path d="m186.947 242.622c-6.407 0-11.619-5.212-11.619-11.62s5.212-11.62 11.619-11.62 11.62 5.212 11.62 11.62-5.213 11.62-11.62 11.62zm0-18.24c-3.65 0-6.619 2.97-6.619 6.62s2.969 6.62 6.619 6.62 6.62-2.97 6.62-6.62-2.97-6.62-6.62-6.62z"/><path d="m114.637 242.622c-6.407 0-11.619-5.212-11.619-11.62s5.212-11.62 11.619-11.62 11.62 5.212 11.62 11.62-5.213 11.62-11.62 11.62zm0-18.24c-3.65 0-6.619 2.97-6.619 6.62s2.969 6.62 6.619 6.62 6.62-2.97 6.62-6.62-2.97-6.62-6.62-6.62z"/><path d="m107.48 180.437h-.542c-5.333 0-9.673-4.339-9.673-9.673v-32.444c0-5.334 4.339-9.673 9.673-9.673h.542c5.333 0 9.673 4.339 9.673 9.673v32.443c0 5.334-4.34 9.674-9.673 9.674zm-.542-46.79c-2.577 0-4.673 2.097-4.673 4.673v32.443c0 2.577 2.096 4.673 4.673 4.673h.542c2.577 0 4.673-2.097 4.673-4.673v-32.443c0-2.577-2.096-4.673-4.673-4.673z"/><path d="m139.027 180.437h-.542c-5.333 0-9.673-4.339-9.673-9.673v-32.444c0-5.334 4.339-9.673 9.673-9.673h.542c5.334 0 9.673 4.339 9.673 9.673v32.443c0 5.334-4.339 9.674-9.673 9.674zm-.542-46.79c-2.577 0-4.673 2.097-4.673 4.673v32.443c0 2.577 2.096 4.673 4.673 4.673h.542c2.577 0 4.673-2.097 4.673-4.673v-32.443c0-2.577-2.097-4.673-4.673-4.673z"/><path d="m170.574 180.437h-.542c-5.333 0-9.673-4.339-9.673-9.673v-32.444c0-5.334 4.339-9.673 9.673-9.673h.542c5.334 0 9.673 4.339 9.673 9.673v32.443c.001 5.334-4.339 9.674-9.673 9.674zm-.541-46.79c-2.577 0-4.673 2.097-4.673 4.673v32.443c0 2.577 2.096 4.673 4.673 4.673h.542c2.577 0 4.673-2.097 4.673-4.673v-32.443c0-2.577-2.097-4.673-4.673-4.673z"/><path d="m202.122 180.437h-.542c-5.333 0-9.673-4.339-9.673-9.673v-32.444c0-5.334 4.339-9.673 9.673-9.673h.542c5.333 0 9.673 4.339 9.673 9.673v32.443c-.001 5.334-4.34 9.674-9.673 9.674zm-.542-46.79c-2.577 0-4.673 2.097-4.673 4.673v32.443c0 2.577 2.096 4.673 4.673 4.673h.542c2.577 0 4.673-2.097 4.673-4.673v-32.443c0-2.577-2.096-4.673-4.673-4.673z"/></svg>